<svg aria-hidden="true" style="position: absolute; width: 0; height: 0; overflow: hidden;" version="1.1" xmlns="http://www.w3.org/2000/svg" xmlns:xlink="http://www.w3.org/1999/xlink">
<defs>
<symbol id="icon-vector-3" viewBox="0 0 32 32">
<path fill="#ffee58" style="fill: var(--color1, #ffee58)" d="M16.912 0.211v10.826c2.044 0.723 3.509 2.672 3.509 4.964s-1.465 4.241-3.509 4.964v10.826h3.68v-3.815c0.617-0.305 1.208-0.661 1.766-1.064l0.54 0.328 2.616 1.577 1.51-2.733 3.923-7.112-3.153-1.903c0.030-0.358 0.045-0.714 0.045-1.069s-0.015-0.711-0.045-1.069l0.54-0.324 2.613-1.579-1.51-2.735-2.414-4.377-1.51-2.733-3.156 1.906c-0.558-0.403-1.149-0.759-1.766-1.064v-3.815h-3.68zM1.123 7.228c0-3.579 5.357-6.532 12.281-6.963v13.926c-6.757-0.421-12.022-3.244-12.271-6.706l-0.009-0.257zM1.132 10.994c0.25 3.462 5.515 6.285 12.271 6.706v5.263c-6.757-0.421-12.022-3.244-12.271-6.706l-0.009-0.257v-5.263l0.009 0.257zM1.132 19.766c0.25 3.462 5.515 6.285 12.271 6.706v5.263c-6.757-0.421-12.022-3.244-12.271-6.706l-0.009-0.257v-5.263l0.009 0.257z"></path>
</symbol>
<symbol id="icon-vector" viewBox="0 0 32 32">
  <path fill="currentColor" d="M12.667 1v8.822l-2.779-2.779-0.581 0.457c-2.631 2.071-4.14 5.168-4.14 8.5 0 5.973 4.86 10.833 10.833 10.833s10.833-4.86 10.833-10.833c0-4.37-2.655-8.311-6.667-9.988v-4.419c6.336 1.833 10.833 7.733 10.833 14.407 0 8.271-6.729 15-15 15s-15-6.729-15-15c0-4.358 1.906-8.495 5.228-11.349l0.682-0.586-3.065-3.065h8.822zM13.5 0.167h-11.667l3.852 3.852c-3.373 2.898-5.518 7.183-5.518 11.982 0 8.744 7.089 15.833 15.833 15.833s15.833-7.089 15.833-15.833c0-7.6-5.358-13.943-12.5-15.475v6.058c3.877 1.377 6.667 5.072 6.667 9.417 0 5.514-4.486 10-10 10s-10-4.486-10-10c0-3.183 1.498-6.015 3.822-7.845l3.678 3.678v-11.667z"/>
</symbol>
<symbol id="icon-rainbow" viewBox="0 0 32 32">
<path fill="#ff5117" style="fill: var(--color3, #ff5117)" d="M7.095 28.155l-1.448 2.91c0 0-2.8 0.063-2.96-0.043s-1.995-11.563 6.335-20.745c8.81-9.717 19.88-9.647 20.145-9.327 0.265 0.317 0.2 4.202 0.2 4.202l-22.272 23.002z"></path>
<path fill="#ff8e00" style="fill: var(--color4, #ff8e00)" d="M17.695 7.052c-5.47 3.093-9.6 7.773-11.512 15.095-0.91 3.483-0.567 8.912-0.567 8.912h3.23l9.607-14.105 10.915-10.23v-2.99c0 0-6.53 0.407-11.672 3.317z"></path>
<path fill="#f9d81e" style="fill: var(--color5, #f9d81e)" d="M11.005 18.73c-2.638 5.080-2.165 12.33-2.165 12.33l3.152-0.003 10.767-14.305 6.61-6.797-0.005-3.227c0 0-3.768-0.035-9.633 2.805-4.71 2.277-7.292 6.435-8.727 9.197z"></path>
<path fill="#97cc37" style="fill: var(--color6, #97cc37)" d="M16.367 16.183c-5.468 6.832-4.433 14.875-4.433 14.875h3.508l5.99-10.867 7.937-6.583-0.003-3.685c0 0-8.115 0.152-13 6.26z"></path>
<path fill="#00c0e9" style="fill: var(--color7, #00c0e9)" d="M19.233 17.72c-5.455 5.238-4.242 13.338-4.242 13.338h2.815l4.195-10.515 7.37-3.858-0.003-3.637c0 0-4.823-0.425-10.135 4.672z"></path>
<path fill="#8177fa" style="fill: var(--color8, #8177fa)" d="M29.257 18.68c0.168-0.263 0.113-3 0.113-3s-4.563-0.083-8.408 4.25c-3.837 4.325-3.285 11.127-3.285 11.127s2.63 0.080 2.738-0.132c0.215-0.425-0.727-5.433 2.41-8.965 3.25-3.657 6.34-3.14 6.433-3.28z"></path>
</symbol>
<symbol id="icon-clock" viewBox="0 0 32 32">
<path fill="#ff52a1" style="fill: var(--color9, #ff52a1); stroke: var(--color10, #231f20)" stroke="#231f20" stroke-linejoin="miter" stroke-linecap="butt" stroke-miterlimit="10" stroke-width="0.8" d="M0.826 16c0 11.681 12.646 18.982 22.762 13.142 2.307-1.332 4.222-3.248 5.554-5.554s2.033-4.924 2.033-7.587c0-11.681-12.646-18.982-22.762-13.141-2.307 1.332-4.222 3.247-5.554 5.554s-2.033 4.923-2.033 7.587z"></path>
<path fill="#fff" style="fill: var(--color11, #fff); stroke: var(--color10, #231f20)" stroke="#231f20" stroke-linejoin="miter" stroke-linecap="butt" stroke-miterlimit="10" stroke-width="0.8" d="M5.884 16c0 7.787 8.43 12.654 15.174 8.761 1.538-0.888 2.814-2.165 3.702-3.703s1.355-3.282 1.356-5.058c0-7.787-8.43-12.654-15.174-8.761-1.537 0.888-2.814 2.165-3.702 3.703s-1.355 3.282-1.356 5.058z"></path>
<path fill="#ff52a1" style="fill: var(--color9, #ff52a1); stroke: var(--color10, #231f20)" stroke="#231f20" stroke-linejoin="miter" stroke-linecap="butt" stroke-miterlimit="10" stroke-width="0.8" d="M17.133 15.201c0-3.156-0.778-5.382-1.75-5.382s-1.76 1.396-1.76 4.451c0 3.814 1.618 4.43 4.188 4.44 2.569 0.011 4.178-0.778 4.188-1.75s-1.022-1.76-4.866-1.76z"></path>
<path fill="none" stroke="#fff" style="stroke: var(--color11, #fff)" stroke-linejoin="miter" stroke-linecap="round" stroke-miterlimit="10" stroke-width="0.8" d="M22.242 4.538c1.537 0.387 2.871 1.341 3.733 2.67"></path>
</symbol>
<symbol id="icon-lamp" viewBox="0 0 32 32">
<path fill="#ffee58" style="fill: var(--color1, #ffee58)" d="M20.348 24.696v5.797h-1.449v1.449h-5.797v-1.449h-1.449v-5.797h8.696zM26.145 5.855v10.145h-1.449v1.449h-1.449v1.449h-1.449v4.348h-11.594v-4.348h-1.449v-1.449h-1.449v-1.449h-1.449v-10.145h1.449v-1.449h1.449v-1.449h1.449v-1.449h1.449v-1.449h8.696v1.449h1.449v1.449h1.449v1.449h1.449v1.449h1.449z"></path>
</symbol>
<symbol id="icon-paint" viewBox="0 0 32 32">
<path fill="#ac5810" style="fill: var(--color12, #ac5810)" d="M19.482 4.365c-7.953-4.196-15.194-1.206-17.802 2.88-0.855 1.335-1.459 3.766-1.436 5.693 0.047 3.966 2.242 8.385 6.979 12.844 5.828 5.484 11.776 5.005 13.667 4.545 2.38-0.581 3.976-1.076 3.731-3.295-0.031-0.292-0.281-0.821-0.658-1.052-1.21-0.734-3.74-1.117-4.929-2.885-1.729-2.575 0.421-2.705 2.481-1.604 2.205 1.18 3.466 1.917 5.679 1.714 1.623-0.148 3.982-1.127 4.302-3.865 0.288-2.476-3.327-10.391-12.015-14.974zM22.728 17.823c-0.609 0.927-2.115 0.609-3.101-0.266s-1.115-2.333-0.475-2.906c0.651-0.58 1.875-0.448 2.862 0.427 0.984 0.877 1.191 2.016 0.714 2.745z"></path>
<path fill="#f2a259" style="fill: var(--color13, #f2a259)" d="M19.831 3.42c-7.954-4.196-15.213-0.951-17.821 3.135-2.611 4.088-1.476 11.658 5.56 18.281 5.827 5.483 11.776 5.005 13.667 4.544 2.38-0.58 4.059-1.714 3.013-3.158-0.722-0.998-3.307-1.75-4.868-4.073-1.729-2.576 0.423-2.706 2.482-1.604 2.205 1.179 3.467 1.917 5.68 1.714 1.622-0.149 4.075-1.404 4.002-3.941-0.076-2.493-3.028-10.313-11.716-14.898zM23.491 17.75c-0.742 0.802-2.323 0.583-3.531-0.484-1.205-1.070-1.583-2.585-0.841-3.385 0.742-0.802 2.323-0.583 3.531 0.484s1.583 2.586 0.841 3.385z"></path>
<path fill="#eee" style="fill: var(--color14, #eee)" d="M11.734 21.38c0.3-0.766 2.43-1.604 4.389-0.211 0.549 0.391 1.236 1.385 1.167 2.635-0.229 4.083-6.93 1.099-5.555-2.424z"></path>
<path fill="#2686c6" style="fill: var(--color15, #2686c6)" d="M5.514 14.456c0.684-1.094 2.349-1.219 3.804-0.274 1.297 0.841 2.38 2.911 0.781 4.266-0.856 0.726-2.339 0.276-3.252-0.425-1.109-0.846-2.071-2.39-1.333-3.567z"></path>
<path fill="#ffee58" style="fill: var(--color1, #ffee58)" d="M14.352 4.911c0.21-0.867 1.681-1.016 2.723-0.627 1.8 0.672 2.615 2.453 1.951 3.445-0.972 1.451-3.089 0.953-3.891 0.123-1.361-1.406-0.96-2.214-0.783-2.941z"></path>
<path fill="#7cb342" style="fill: var(--color16, #7cb342)" d="M24.779 9.156c1.442 0.656 1.629 1.695 1.354 2.453-0.173 0.469-0.524 1.111-1.243 1.17-1.217 0.099-1.385-0.906-2.253-1.182-0.729-0.232-1.026-1.229-0.74-1.899 0.267-0.617 1.043-1.38 2.881-0.542z"></path>
<path fill="#b0b0b0" style="fill: var(--color17, #b0b0b0)" d="M16.774 24.583c-0.359 0.326-1.607 0.727-3.191-0.263-0.536-0.336-1.050-0.823-1.339-1.552-0.226-0.573-0.177-1.125-0.075-1.37 0.292-0.706 0.736-0.836 0.736-0.836-0.448-0.031-1.294 0.563-1.434 1.342-0.045 0.245-0.36 1.775 1.669 3.164 1.747 1.198 4.331 1.086 4.161-1.325-0.098 0.323-0.279 0.613-0.528 0.841z"></path>
<path fill="#01579b" style="fill: var(--color18, #01579b)" d="M10.859 16.448c-0.049 0.93-1.139 1.42-1.745 1.422-1.717 0.002-3.258-1.076-3.365-2.995-0.019-0.344 0.151-0.841 0.151-0.841-0.227 0.096-0.547 0.585-0.615 0.861-0.401 1.656 1.268 3.586 3.026 3.977 0.891 0.198 2.014-0.107 2.422-0.904 0.292-0.568 0.234-1.054 0.125-1.521z"></path>
<path fill="#df7f14" style="fill: var(--color19, #df7f14)" d="M16.865 7.854c-1.167-0.133-1.813-0.896-1.981-1.071-0.465-0.484-0.75-0.955-0.583-1.653 0.052-0.224 0.179-0.51 0.335-0.672-0.19 0.063-0.497 0.471-0.594 0.693-0.099 0.221-0.458 1.052 0.313 2.075 0.476 0.635 1.307 1.352 2.536 1.524 0.872 0.122 1.498-0.191 2.019-0.698 0.354-0.347 0.51-1.128 0.299-1.531 0.034 0.294-0.505 1.544-2.344 1.333z"></path>
<path fill="#558b2f" style="fill: var(--color20, #558b2f)" d="M26.461 11.014c-0.095-0.3-0.245-0.579-0.443-0.823 0.132 0.255 0.396 1.021-0.156 1.765-0.279 0.375-1.118 0.836-2.107 0.034-0.292-0.238-0.526-0.472-1.052-0.665-1.335-0.492-0.753-1.851-0.289-2.273-0.365 0.191-0.696 0.531-0.833 1.052-0.194 0.726 0.283 1.487 1.007 1.851 0.823 0.415 1.089 1.214 2.217 1.214 0.057 0 0.118-0.002 0.182-0.007 0.76-0.065 1.080-0.359 1.312-0.719 0.283-0.448 0.292-0.956 0.16-1.43z"></path>
<path fill="#f44336" style="fill: var(--color21, #f44336)" d="M6.057 6.050c0.594-0.586 1.627-1.206 3.141-0.417 0.911 0.474 1.972 1.031 1.492 2.958-0.296 1.195-2.036 1.828-3.49 0.497-0.575-0.526-2.763-1.44-1.143-3.039z"></path>
<path fill="#c62828" style="fill: var(--color22, #c62828)" d="M11.037 8.333c0.019-0.455-0.216-1.010-0.297-1.198 0.014 0.273 0.25 0.964-0.835 1.877-0.251 0.202-0.551 0.333-0.869 0.38s-0.643 0.007-0.941-0.114c-0.382-0.151-0.932-0.783-1.325-0.943-1.461-0.587-0.831-2.153-0.625-2.367-0.38 0.271-0.637 0.681-0.717 1.141-0.135 0.706-0.010 1.373 0.958 2.135 2.75 2.169 3.594 0.861 3.894 0.529 0.377-0.406 0.736-0.937 0.757-1.441z"></path>
<path fill="#fff" style="fill: var(--color11, #fff)" d="M16.453 4.375c-0.382-0.179-1.476-0.127-1.687 0.784-0.127 0.547 0.274 1.101 0.651 1.036 0.429-0.073 0.201-0.743 0.458-0.932 0.393-0.286 1.115-0.635 0.578-0.889zM8.386 5.703c-0.377-0.25-1.583-0.252-1.945 0.672-0.219 0.555 0.122 1.198 0.531 1.188 0.466-0.010 0.242-0.559 0.629-0.908 0.49-0.441 1.312-0.602 0.784-0.951zM8.206 14.047c-0.357-0.226-1.415-0.316-1.852 0.512-0.321 0.609 0.12 1.281 0.502 1.264 0.435-0.021 0.29-0.714 0.568-0.87 0.425-0.236 1.282-0.589 0.782-0.906zM14.28 20.981c-0.382-0.179-1.477-0.127-1.687 0.784-0.128 0.547 0.273 1.102 0.651 1.036 0.429-0.073 0.2-0.743 0.458-0.932 0.391-0.286 1.112-0.635 0.578-0.889zM24.093 9.242c-0.344-0.244-1.429-0.388-1.799 0.472-0.222 0.516 0.073 1.133 0.455 1.135 0.435 0.002 0.328-0.696 0.618-0.836 0.434-0.21 1.208-0.427 0.726-0.771z"></path>
</symbol>
<symbol id="icon-game" viewBox="0 0 32 32">
<path d="M13.884 5.927l-0.797-0.564c-1.137-0.805-2.496-1.237-3.889-1.237h-0.971c-0.643 0-1.29 0.040-1.895 0.254-3.783 1.343-6.384 6.246-6.195 17.37 0.038 2.241 0.562 4.717 2.584 5.684 0.69 0.332 1.446 0.503 2.211 0.502 0.86 0.014 1.705-0.227 2.429-0.694 0.651-0.425 1.222-0.978 1.794-1.53 0.705-0.683 1.41-1.365 2.26-1.806 0.927-0.481 1.956-0.732 3-0.732h3.173c1.044 0 2.073 0.251 3 0.73 0.851 0.443 1.556 1.125 2.262 1.808 0.571 0.552 1.143 1.105 1.79 1.53 0.619 0.406 1.421 0.694 2.43 0.694 0.765 0.002 1.521-0.17 2.211-0.502 2.022-0.967 2.546-3.444 2.584-5.684 0.189-11.124-2.413-16.027-6.195-17.368-0.606-0.216-1.257-0.256-1.897-0.256h-0.971c-1.393 0-2.752 0.433-3.889 1.238l-0.797 0.562c-0.619 0.437-1.358 0.672-2.116 0.672s-1.497-0.235-2.116-0.672zM23.54 10.476c0.316 0 0.619 0.125 0.842 0.349s0.349 0.526 0.349 0.842c0 0.316-0.125 0.618-0.349 0.842s-0.526 0.349-0.842 0.349c-0.316 0-0.619-0.126-0.842-0.349s-0.349-0.526-0.349-0.842c0-0.316 0.125-0.619 0.349-0.842s0.526-0.349 0.842-0.349zM8.857 10.873c0.316 0 0.619 0.125 0.842 0.349s0.349 0.526 0.349 0.842v1.19h1.19c0.316 0 0.619 0.125 0.842 0.349s0.349 0.526 0.349 0.842-0.125 0.619-0.349 0.842c-0.223 0.223-0.526 0.349-0.842 0.349h-1.19v1.19c0 0.316-0.125 0.619-0.349 0.842s-0.526 0.349-0.842 0.349-0.619-0.125-0.842-0.349c-0.223-0.223-0.349-0.526-0.349-0.842v-1.19h-1.19c-0.316 0-0.619-0.125-0.842-0.349s-0.349-0.526-0.349-0.842 0.125-0.618 0.349-0.842c0.223-0.223 0.526-0.349 0.842-0.349h1.19v-1.19c0-0.316 0.125-0.619 0.349-0.842s0.526-0.349 0.842-0.349zM27.111 14.048c0 0.316-0.125 0.619-0.349 0.842s-0.526 0.349-0.842 0.349c-0.316 0-0.619-0.126-0.842-0.349s-0.349-0.526-0.349-0.842c0-0.316 0.125-0.619 0.349-0.842s0.526-0.349 0.842-0.349c0.316 0 0.619 0.125 0.842 0.349s0.349 0.526 0.349 0.842zM21.159 15.238c0.316 0 0.619-0.126 0.842-0.349s0.349-0.526 0.349-0.842c0-0.316-0.125-0.619-0.349-0.842s-0.526-0.349-0.842-0.349c-0.316 0-0.619 0.125-0.842 0.349s-0.349 0.526-0.349 0.842c0 0.316 0.125 0.618 0.349 0.842s0.526 0.349 0.842 0.349zM24.73 16.429c0-0.316-0.125-0.619-0.349-0.842s-0.526-0.349-0.842-0.349c-0.316 0-0.619 0.125-0.842 0.349s-0.349 0.526-0.349 0.842c0 0.316 0.125 0.619 0.349 0.842s0.526 0.349 0.842 0.349c0.316 0 0.619-0.125 0.842-0.349s0.349-0.526 0.349-0.842z"></path>
</symbol>
 <symbol id="icon-vector-9" viewBox="0 0 48 32">
      <path stroke-width="8" d="M44 6 24 26 4 6"/>
    </symbol>
  <symbol id="icon-circle-down" viewBox="0 0 32 32">
<path d="M32 16c0-8.837-7.163-16-16-16s-16 7.163-16 16 7.163 16 16 16 16-7.163 16-16zM3 16c0-7.18 5.82-13 13-13s13 5.82 13 13-5.82 13-13 13-13-5.82-13-13z"></path>
<path d="M9.914 11.086l-2.829 2.829 8.914 8.914 8.914-8.914-2.828-2.828-6.086 6.086z"></path>
</symbol>
<symbol id="icon-Ellipse" viewBox="0 0 32 32">
<path fill="#8ad9f7" style="fill: var(--color1, #8ad9f7)" d="M32 16c0 8.837-7.163 16-16 16s-16-7.163-16-16c0-8.837 7.163-16 16-16s16 7.163 16 16z"></path>
</symbol>
<symbol id="icon-Vector-left" viewBox="0 0 18 32">
  <path d="M0 16l15.976 16 2.485-2.667-13.136-13.333 13.136-13.333-2.485-2.667-15.976 16z"></path>
</symbol>

<symbol id="icon-Vector-right" viewBox="0 0 18 32">
  <path d="M2.485 0l-2.485 2.667 13.136 13.333-13.136 13.333 2.485 2.667 15.976-16-15.976-16z"></path>
</symbol>
<symbol id="icon-Group-1" viewBox="0 0 41 32">
<path fill="none" stroke="#fff" style="stroke: var(--color1, #fff)" stroke-linejoin="round" stroke-linecap="round" stroke-miterlimit="4" stroke-width="3.5556" d="M26.586 26.263l1.778 3.556c0 0 7.413-2.364 9.778-6.222 0-1.778 0.942-14.489-5.333-18.667-2.667-1.778-7.111-2.667-7.111-2.667l-1.778 3.556h-7.111l-1.724-3.556c0 0-4.444 0.889-7.111 2.667-6.276 4.178-5.333 16.889-5.333 18.667 2.364 3.858 9.778 6.222 9.778 6.222l1.778-3.556"></path>
<path fill="none" stroke="#fff" style="stroke: var(--color1, #fff)" stroke-linejoin="round" stroke-linecap="round" stroke-miterlimit="4" stroke-width="3.5556" d="M8.808 23.596c8.889 4.444 14.222 4.444 23.111 0"></path>
</symbol>
<symbol id="icon-twitter" viewBox="0 0 36 32">
<path fill="none" stroke="#fff" style="stroke: var(--color1, #fff)" stroke-linejoin="round" stroke-linecap="round" stroke-miterlimit="4" stroke-width="3.9111" d="M33.563 6.887c-0.176 0.645-0.958 2.268-2.288 3.813-0.88 16.974-17.346 22.489-28.629 16.798-1.545-2.053 5.573-1.212 8.174-5.143-9.836-5.026-9.054-18.46-7.079-17.913 4.635 6.238 12.105 6.805 13.317 6.238 0-1.428-0.606-4.537 2.757-7.138 1.936-1.388 5.984-2.62 9.641 1.349 0.626 0.411 1.525 0.587 2.875 0.293 0.802-0.411 1.858-0.137 1.31 1.291l-0.078 0.411z"></path>
</symbol>
<symbol id="icon-facebook" viewBox="0 0 19 32">
<path fill="none" stroke="#fff" style="stroke: var(--color1, #fff)" stroke-linejoin="round" stroke-linecap="round" stroke-miterlimit="4" stroke-width="2.2" d="M17.733 1.333h-4.4c-1.945 0-3.81 0.773-5.185 2.148s-2.148 3.241-2.148 5.185v4.4h-4.4v5.867h4.4v11.733h5.867v-11.733h4.4l1.467-5.867h-5.867v-4.4c0-0.389 0.155-0.762 0.43-1.037s0.648-0.43 1.037-0.43h4.4v-5.867z"></path>
</symbol>
<symbol id="icon-instagram" viewBox="0 0 32 32">
<path fill="#fff" style="fill: var(--color1, #fff)" d="M9.516 0.561h12.968c4.94 0 8.954 4.014 8.954 8.954v12.968c0 2.375-0.943 4.652-2.623 6.332s-3.957 2.623-6.332 2.623h-12.968c-4.94 0-8.954-4.014-8.954-8.954v-12.968c0-2.375 0.943-4.652 2.623-6.332s3.957-2.623 6.332-2.623zM9.207 3.649c-1.474 0-2.888 0.586-3.93 1.628s-1.628 2.456-1.628 3.93v13.586c0 3.072 2.486 5.558 5.558 5.558h13.586c1.474 0 2.888-0.586 3.93-1.628s1.628-2.456 1.628-3.93v-13.586c0-3.072-2.486-5.558-5.558-5.558h-13.586zM24.105 5.965c0.512 0 1.003 0.203 1.365 0.565s0.565 0.853 0.565 1.365-0.203 1.003-0.565 1.365c-0.362 0.362-0.853 0.565-1.365 0.565s-1.003-0.203-1.365-0.565c-0.362-0.362-0.565-0.853-0.565-1.365s0.203-1.003 0.565-1.365c0.362-0.362 0.853-0.565 1.365-0.565zM16 8.281c2.047 0 4.011 0.813 5.458 2.261s2.261 3.411 2.261 5.458c0 2.047-0.813 4.011-2.261 5.458s-3.411 2.261-5.458 2.261c-2.047 0-4.011-0.813-5.458-2.261s-2.261-3.411-2.261-5.458c0-2.047 0.813-4.011 2.261-5.458s3.411-2.261 5.458-2.261zM16 11.368c-1.228 0-2.406 0.488-3.275 1.357s-1.357 2.047-1.357 3.275 0.488 2.406 1.357 3.275c0.869 0.869 2.047 1.357 3.275 1.357s2.406-0.488 3.275-1.357c0.869-0.869 1.357-2.047 1.357-3.275s-0.488-2.406-1.357-3.275c-0.869-0.869-2.047-1.357-3.275-1.357z"></path>
</symbol>
</defs>
</svg>
